{
	"patcher" : 	{
		"fileversion" : 1,
		"appversion" : 		{
			"major" : 7,
			"minor" : 3,
			"revision" : 5,
			"architecture" : "x86",
			"modernui" : 1
		}
,
		"rect" : [ 34.0, 79.0, 341.0, 185.0 ],
		"bgcolor" : [ 0.8, 0.8, 0.501961, 1.0 ],
		"bglocked" : 0,
		"openinpresentation" : 1,
		"default_fontsize" : 12.0,
		"default_fontface" : 0,
		"default_fontname" : "Arial",
		"gridonopen" : 1,
		"gridsize" : [ 8.0, 8.0 ],
		"gridsnaponopen" : 1,
		"objectsnaponopen" : 1,
		"statusbarvisible" : 2,
		"toolbarvisible" : 1,
		"lefttoolbarpinned" : 0,
		"toptoolbarpinned" : 0,
		"righttoolbarpinned" : 0,
		"bottomtoolbarpinned" : 0,
		"toolbars_unpinned_last_save" : 0,
		"tallnewobj" : 0,
		"boxanimatetime" : 200,
		"enablehscroll" : 0,
		"enablevscroll" : 0,
		"devicewidth" : 0.0,
		"description" : "Simple step sequencer for Vizzie data",
		"digest" : "",
		"tags" : "Vizzie Generator",
		"style" : "",
		"subpatcher_template" : "",
		"boxes" : [ 			{
				"box" : 				{
					"fontname" : "Arial",
					"fontsize" : 12.0,
					"id" : "obj-2",
					"maxclass" : "newobj",
					"numinlets" : 2,
					"numoutlets" : 1,
					"outlettype" : [ "float" ],
					"patching_rect" : [ 349.5, 817.0, 32.5, 22.0 ],
					"style" : "",
					"text" : "!- 1."
				}

			}
, 			{
				"box" : 				{
					"fontname" : "Arial",
					"fontsize" : 12.0,
					"id" : "obj-15",
					"maxclass" : "newobj",
					"numinlets" : 6,
					"numoutlets" : 1,
					"outlettype" : [ "" ],
					"patching_rect" : [ 754.0, 166.998413, 105.0, 22.0 ],
					"style" : "",
					"text" : "scale 0. 1. 5. 500."
				}

			}
, 			{
				"box" : 				{
					"fontname" : "Arial",
					"fontsize" : 12.0,
					"id" : "obj-16",
					"maxclass" : "newobj",
					"numinlets" : 1,
					"numoutlets" : 3,
					"outlettype" : [ "", "", "" ],
					"patching_rect" : [ 773.0, 198.998413, 67.0, 22.0 ],
					"restore" : [ 127.283463 ],
					"saved_object_attributes" : 					{
						"parameter_enable" : 0
					}
,
					"style" : "",
					"text" : "pattr time1",
					"varname" : "time1"
				}

			}
, 			{
				"box" : 				{
					"fontname" : "Arial",
					"fontsize" : 12.0,
					"id" : "obj-131",
					"maxclass" : "newobj",
					"numinlets" : 2,
					"numoutlets" : 1,
					"outlettype" : [ "float" ],
					"patching_rect" : [ 349.5, 793.0, 42.0, 22.0 ],
					"style" : "",
					"text" : "* 0.01"
				}

			}
, 			{
				"box" : 				{
					"fontname" : "Arial",
					"fontsize" : 12.0,
					"id" : "obj-129",
					"maxclass" : "newobj",
					"numinlets" : 3,
					"numoutlets" : 1,
					"outlettype" : [ "float" ],
					"patcher" : 					{
						"fileversion" : 1,
						"appversion" : 						{
							"major" : 7,
							"minor" : 3,
							"revision" : 5,
							"architecture" : "x86",
							"modernui" : 1
						}
,
						"rect" : [ 25.0, 69.0, 640.0, 480.0 ],
						"bglocked" : 0,
						"openinpresentation" : 0,
						"default_fontsize" : 12.0,
						"default_fontface" : 0,
						"default_fontname" : "Arial",
						"gridonopen" : 1,
						"gridsize" : [ 15.0, 15.0 ],
						"gridsnaponopen" : 1,
						"objectsnaponopen" : 1,
						"statusbarvisible" : 2,
						"toolbarvisible" : 1,
						"lefttoolbarpinned" : 0,
						"toptoolbarpinned" : 0,
						"righttoolbarpinned" : 0,
						"bottomtoolbarpinned" : 0,
						"toolbars_unpinned_last_save" : 0,
						"tallnewobj" : 0,
						"boxanimatetime" : 200,
						"enablehscroll" : 0,
						"enablevscroll" : 0,
						"devicewidth" : 0.0,
						"description" : "",
						"digest" : "",
						"tags" : "",
						"style" : "",
						"subpatcher_template" : "",
						"boxes" : [ 							{
								"box" : 								{
									"fontname" : "Arial",
									"fontsize" : 12.0,
									"id" : "obj-2",
									"maxclass" : "newobj",
									"numinlets" : 2,
									"numoutlets" : 1,
									"outlettype" : [ "float" ],
									"patching_rect" : [ 189.0, 106.0, 55.0, 20.0 ],
									"style" : "",
									"text" : "!- 1."
								}

							}
, 							{
								"box" : 								{
									"fontname" : "Arial",
									"fontsize" : 12.0,
									"id" : "obj-15",
									"maxclass" : "newobj",
									"numinlets" : 2,
									"numoutlets" : 1,
									"outlettype" : [ "float" ],
									"patching_rect" : [ 169.0, 166.0, 39.0, 20.0 ],
									"style" : "",
									"text" : "* 0.9"
								}

							}
, 							{
								"box" : 								{
									"fontname" : "Arial",
									"fontsize" : 12.0,
									"id" : "obj-16",
									"maxclass" : "newobj",
									"numinlets" : 2,
									"numoutlets" : 1,
									"outlettype" : [ "float" ],
									"patching_rect" : [ 56.0, 196.0, 132.0, 20.0 ],
									"style" : "",
									"text" : "+ 0."
								}

							}
, 							{
								"box" : 								{
									"fontname" : "Arial",
									"fontsize" : 12.0,
									"id" : "obj-17",
									"maxclass" : "newobj",
									"numinlets" : 2,
									"numoutlets" : 1,
									"outlettype" : [ "float" ],
									"patching_rect" : [ 56.0, 166.0, 88.0, 20.0 ],
									"style" : "",
									"text" : "* 0.1"
								}

							}
, 							{
								"box" : 								{
									"fontname" : "Arial",
									"fontsize" : 12.0,
									"id" : "obj-20",
									"maxclass" : "newobj",
									"numinlets" : 2,
									"numoutlets" : 1,
									"outlettype" : [ "float" ],
									"patching_rect" : [ 56.0, 136.0, 56.0, 20.0 ],
									"style" : "",
									"text" : "f"
								}

							}
, 							{
								"box" : 								{
									"comment" : "",
									"id" : "obj-25",
									"index" : 1,
									"maxclass" : "inlet",
									"numinlets" : 0,
									"numoutlets" : 1,
									"outlettype" : [ "bang" ],
									"patching_rect" : [ 56.0, 40.0, 25.0, 25.0 ],
									"style" : ""
								}

							}
, 							{
								"box" : 								{
									"comment" : "",
									"id" : "obj-26",
									"index" : 2,
									"maxclass" : "inlet",
									"numinlets" : 0,
									"numoutlets" : 1,
									"outlettype" : [ "" ],
									"patching_rect" : [ 93.0, 40.0, 25.0, 25.0 ],
									"style" : ""
								}

							}
, 							{
								"box" : 								{
									"comment" : "",
									"id" : "obj-27",
									"index" : 3,
									"maxclass" : "inlet",
									"numinlets" : 0,
									"numoutlets" : 1,
									"outlettype" : [ "float" ],
									"patching_rect" : [ 125.0, 40.0, 25.0, 25.0 ],
									"style" : ""
								}

							}
, 							{
								"box" : 								{
									"comment" : "",
									"id" : "obj-28",
									"index" : 1,
									"maxclass" : "outlet",
									"numinlets" : 1,
									"numoutlets" : 0,
									"patching_rect" : [ 56.0, 250.5, 25.0, 25.0 ],
									"style" : ""
								}

							}
 ],
						"lines" : [ 							{
								"patchline" : 								{
									"destination" : [ "obj-16", 1 ],
									"source" : [ "obj-15", 0 ]
								}

							}
, 							{
								"patchline" : 								{
									"destination" : [ "obj-15", 0 ],
									"midpoints" : [ 65.5, 226.0, 216.0, 226.0, 216.0, 153.0, 178.5, 153.0 ],
									"order" : 0,
									"source" : [ "obj-16", 0 ]
								}

							}
, 							{
								"patchline" : 								{
									"destination" : [ "obj-28", 0 ],
									"order" : 1,
									"source" : [ "obj-16", 0 ]
								}

							}
, 							{
								"patchline" : 								{
									"destination" : [ "obj-16", 0 ],
									"source" : [ "obj-17", 0 ]
								}

							}
, 							{
								"patchline" : 								{
									"destination" : [ "obj-15", 1 ],
									"source" : [ "obj-2", 0 ]
								}

							}
, 							{
								"patchline" : 								{
									"destination" : [ "obj-17", 0 ],
									"source" : [ "obj-20", 0 ]
								}

							}
, 							{
								"patchline" : 								{
									"destination" : [ "obj-20", 0 ],
									"source" : [ "obj-25", 0 ]
								}

							}
, 							{
								"patchline" : 								{
									"destination" : [ "obj-20", 1 ],
									"source" : [ "obj-26", 0 ]
								}

							}
, 							{
								"patchline" : 								{
									"destination" : [ "obj-17", 1 ],
									"order" : 1,
									"source" : [ "obj-27", 0 ]
								}

							}
, 							{
								"patchline" : 								{
									"destination" : [ "obj-2", 0 ],
									"order" : 0,
									"source" : [ "obj-27", 0 ]
								}

							}
 ]
					}
,
					"patching_rect" : [ 296.5, 845.0, 72.0, 22.0 ],
					"saved_object_attributes" : 					{
						"description" : "",
						"digest" : "",
						"globalpatchername" : "",
						"style" : "",
						"tags" : ""
					}
,
					"style" : "",
					"text" : "p smoother"
				}

			}
, 			{
				"box" : 				{
					"bgcolor" : [ 0.913, 0.913, 0.913, 0.75 ],
					"blinkcolor" : [ 1.0, 0.89, 0.09, 1.0 ],
					"id" : "obj-115",
					"maxclass" : "button",
					"numinlets" : 1,
					"numoutlets" : 1,
					"outlettype" : [ "bang" ],
					"outlinecolor" : [ 0.439216, 0.447059, 0.47451, 1.0 ],
					"patching_rect" : [ 1634.0, 28.0, 20.0, 20.0 ],
					"style" : ""
				}

			}
, 			{
				"box" : 				{
					"fontname" : "Arial",
					"fontsize" : 12.0,
					"id" : "obj-111",
					"maxclass" : "newobj",
					"numinlets" : 2,
					"numoutlets" : 2,
					"outlettype" : [ "", "" ],
					"patching_rect" : [ 1578.0, 133.0, 78.0, 22.0 ],
					"style" : "",
					"text" : "data-handler"
				}

			}
, 			{
				"box" : 				{
					"comment" : "set smoothing (0. - 1.0, off/on)",
					"id" : "obj-112",
					"index" : 6,
					"maxclass" : "inlet",
					"numinlets" : 0,
					"numoutlets" : 1,
					"outlettype" : [ "" ],
					"patching_rect" : [ 1578.0, 34.0, 25.0, 25.0 ],
					"style" : ""
				}

			}
, 			{
				"box" : 				{
					"activebgcolor" : [ 0.1, 0.1, 0.1, 1.0 ],
					"activebgoncolor" : [ 0.8, 0.396, 0.0, 1.0 ],
					"bgcolor" : [ 0.1, 0.1, 0.1, 1.0 ],
					"bgoncolor" : [ 0.8, 0.396, 0.0, 1.0 ],
					"bordercolor" : [ 0.8, 0.396, 0.0, 1.0 ],
					"focusbordercolor" : [ 0.8, 0.396, 0.0, 1.0 ],
					"hint" : "data received in this inlets smooths the output (0. - 1.0, off/on)",
					"id" : "obj-113",
					"ignoreclick" : 1,
					"maxclass" : "live.toggle",
					"numinlets" : 1,
					"numoutlets" : 1,
					"outlettype" : [ "" ],
					"parameter_enable" : 1,
					"patching_rect" : [ 1689.0, 133.0, 15.0, 15.0 ],
					"presentation" : 1,
					"presentation_rect" : [ 324.0, 3.0, 9.742592, 9.742592 ],
					"rounded" : 15.0,
					"saved_attribute_attributes" : 					{
						"valueof" : 						{
							"parameter_longname" : "pictctrl[163]",
							"parameter_shortname" : "pictctrl[1]",
							"parameter_type" : 2,
							"parameter_mmax" : 1.0,
							"parameter_enum" : [ "off", "on" ],
							"parameter_initial_enable" : 1,
							"parameter_initial" : [ 1 ]
						}

					}
,
					"varname" : "pictctrl[11]"
				}

			}
, 			{
				"box" : 				{
					"fontname" : "Arial",
					"fontsize" : 12.0,
					"id" : "obj-79",
					"maxclass" : "message",
					"numinlets" : 2,
					"numoutlets" : 1,
					"outlettype" : [ "" ],
					"patching_rect" : [ 1500.5, 191.0, 32.5, 22.0 ],
					"style" : "",
					"text" : "1"
				}

			}
, 			{
				"box" : 				{
					"fontname" : "Arial",
					"fontsize" : 12.0,
					"id" : "obj-83",
					"maxclass" : "message",
					"numinlets" : 2,
					"numoutlets" : 1,
					"outlettype" : [ "" ],
					"patching_rect" : [ 1447.5, 191.0, 32.5, 22.0 ],
					"style" : "",
					"text" : "0"
				}

			}
, 			{
				"box" : 				{
					"fontname" : "Arial",
					"fontsize" : 12.0,
					"id" : "obj-105",
					"maxclass" : "newobj",
					"numinlets" : 3,
					"numoutlets" : 2,
					"outlettype" : [ "float", "float" ],
					"patching_rect" : [ 1447.5, 159.0, 72.0, 22.0 ],
					"style" : "",
					"text" : "split 0. 0.49"
				}

			}
, 			{
				"box" : 				{
					"fontname" : "Arial",
					"fontsize" : 12.0,
					"id" : "obj-106",
					"maxclass" : "newobj",
					"numinlets" : 2,
					"numoutlets" : 2,
					"outlettype" : [ "", "" ],
					"patching_rect" : [ 1447.5, 133.0, 78.0, 22.0 ],
					"style" : "",
					"text" : "data-handler"
				}

			}
, 			{
				"box" : 				{
					"comment" : "toggle random step (0. - .49 = off, .5 - 1.0 = on, off/on)",
					"id" : "obj-107",
					"index" : 5,
					"maxclass" : "inlet",
					"numinlets" : 0,
					"numoutlets" : 1,
					"outlettype" : [ "" ],
					"patching_rect" : [ 1447.5, 34.0, 25.0, 25.0 ],
					"style" : ""
				}

			}
, 			{
				"box" : 				{
					"activebgcolor" : [ 0.1, 0.1, 0.1, 1.0 ],
					"activebgoncolor" : [ 0.8, 0.396, 0.0, 1.0 ],
					"bgcolor" : [ 0.1, 0.1, 0.1, 1.0 ],
					"bgoncolor" : [ 0.8, 0.396, 0.0, 1.0 ],
					"bordercolor" : [ 0.8, 0.396, 0.0, 1.0 ],
					"focusbordercolor" : [ 0.8, 0.396, 0.0, 1.0 ],
					"hint" : "data received in this inlet toggles random steps (0. - .49 = off, .5 - 1.0 = on, off/on)",
					"id" : "obj-109",
					"ignoreclick" : 1,
					"maxclass" : "live.toggle",
					"numinlets" : 1,
					"numoutlets" : 1,
					"outlettype" : [ "" ],
					"parameter_enable" : 1,
					"patching_rect" : [ 1558.5, 133.0, 15.0, 15.0 ],
					"presentation" : 1,
					"presentation_rect" : [ 260.200012, 3.0, 9.742592, 9.742592 ],
					"rounded" : 15.0,
					"saved_attribute_attributes" : 					{
						"valueof" : 						{
							"parameter_longname" : "pictctrl[164]",
							"parameter_shortname" : "pictctrl[1]",
							"parameter_type" : 2,
							"parameter_mmax" : 1.0,
							"parameter_enum" : [ "off", "on" ],
							"parameter_initial_enable" : 1,
							"parameter_initial" : [ 1 ]
						}

					}
,
					"varname" : "pictctrl[12]"
				}

			}
, 			{
				"box" : 				{
					"fontname" : "Arial",
					"fontsize" : 12.0,
					"id" : "obj-71",
					"maxclass" : "newobj",
					"numinlets" : 1,
					"numoutlets" : 3,
					"outlettype" : [ "", "", "" ],
					"patching_rect" : [ 371.0, 703.0, 78.0, 22.0 ],
					"restore" : [ 21.259842 ],
					"saved_object_attributes" : 					{
						"parameter_enable" : 0
					}
,
					"style" : "",
					"text" : "pattr slideval",
					"varname" : "slideval"
				}

			}
, 			{
				"box" : 				{
					"fontname" : "Arial",
					"fontsize" : 12.0,
					"id" : "obj-59",
					"maxclass" : "newobj",
					"numinlets" : 1,
					"numoutlets" : 3,
					"outlettype" : [ "", "", "" ],
					"patching_rect" : [ 188.5, 238.498413, 62.0, 22.0 ],
					"restore" : [ 0.0 ],
					"saved_object_attributes" : 					{
						"parameter_enable" : 0
					}
,
					"style" : "",
					"text" : "pattr rand",
					"varname" : "rand"
				}

			}
, 			{
				"box" : 				{
					"fontname" : "Arial",
					"fontsize" : 12.0,
					"id" : "obj-58",
					"maxclass" : "newobj",
					"numinlets" : 2,
					"numoutlets" : 2,
					"outlettype" : [ "", "" ],
					"patching_rect" : [ 259.0, 339.0, 57.0, 22.0 ],
					"style" : "",
					"text" : "gate 2"
				}

			}
, 			{
				"box" : 				{
					"fontname" : "Arial",
					"fontsize" : 12.0,
					"id" : "obj-55",
					"maxclass" : "newobj",
					"numinlets" : 2,
					"numoutlets" : 1,
					"outlettype" : [ "int" ],
					"patching_rect" : [ 432.75, 372.0, 61.0, 22.0 ],
					"style" : "",
					"text" : "random 8"
				}

			}
, 			{
				"box" : 				{
					"fontname" : "Arial",
					"fontsize" : 12.0,
					"id" : "obj-3",
					"maxclass" : "newobj",
					"numinlets" : 2,
					"numoutlets" : 2,
					"outlettype" : [ "", "" ],
					"patching_rect" : [ 754.0, 133.0, 78.0, 22.0 ],
					"style" : "",
					"text" : "data-handler"
				}

			}
, 			{
				"box" : 				{
					"comment" : "set speed (0. - 1.0, off/on)",
					"id" : "obj-40",
					"index" : 2,
					"maxclass" : "inlet",
					"numinlets" : 0,
					"numoutlets" : 1,
					"outlettype" : [ "" ],
					"patching_rect" : [ 754.0, 34.0, 25.0, 25.0 ],
					"style" : ""
				}

			}
, 			{
				"box" : 				{
					"activebgcolor" : [ 0.1, 0.1, 0.1, 1.0 ],
					"activebgoncolor" : [ 0.8, 0.396, 0.0, 1.0 ],
					"bgcolor" : [ 0.1, 0.1, 0.1, 1.0 ],
					"bgoncolor" : [ 0.8, 0.396, 0.0, 1.0 ],
					"bordercolor" : [ 0.8, 0.396, 0.0, 1.0 ],
					"focusbordercolor" : [ 0.8, 0.396, 0.0, 1.0 ],
					"hint" : "An input data value is used to set the speed (0. - 1.0, off/on)",
					"id" : "obj-19",
					"ignoreclick" : 1,
					"maxclass" : "live.toggle",
					"numinlets" : 1,
					"numoutlets" : 1,
					"outlettype" : [ "" ],
					"parameter_enable" : 1,
					"patching_rect" : [ 865.0, 133.0, 15.0, 15.0 ],
					"presentation" : 1,
					"presentation_rect" : [ 68.800003, 3.0, 9.742592, 9.742592 ],
					"rounded" : 15.0,
					"saved_attribute_attributes" : 					{
						"valueof" : 						{
							"parameter_longname" : "pictctrl[165]",
							"parameter_shortname" : "pictctrl[1]",
							"parameter_type" : 2,
							"parameter_mmax" : 1.0,
							"parameter_enum" : [ "off", "on" ],
							"parameter_initial_enable" : 1,
							"parameter_initial" : [ 1 ]
						}

					}
,
					"varname" : "pictctrl[17]"
				}

			}
, 			{
				"box" : 				{
					"fontname" : "Arial",
					"fontsize" : 12.0,
					"id" : "obj-20",
					"maxclass" : "message",
					"numinlets" : 2,
					"numoutlets" : 1,
					"outlettype" : [ "" ],
					"patching_rect" : [ 666.0, 191.0, 32.5, 22.0 ],
					"style" : "",
					"text" : "1"
				}

			}
, 			{
				"box" : 				{
					"fontname" : "Arial",
					"fontsize" : 12.0,
					"id" : "obj-5",
					"maxclass" : "message",
					"numinlets" : 2,
					"numoutlets" : 1,
					"outlettype" : [ "" ],
					"patching_rect" : [ 613.0, 191.0, 32.5, 22.0 ],
					"style" : "",
					"text" : "0"
				}

			}
, 			{
				"box" : 				{
					"fontname" : "Arial",
					"fontsize" : 12.0,
					"id" : "obj-9",
					"maxclass" : "newobj",
					"numinlets" : 3,
					"numoutlets" : 2,
					"outlettype" : [ "float", "float" ],
					"patching_rect" : [ 613.0, 159.0, 72.0, 22.0 ],
					"style" : "",
					"text" : "split 0. 0.49"
				}

			}
, 			{
				"box" : 				{
					"fontname" : "Arial",
					"fontsize" : 12.0,
					"id" : "obj-28",
					"maxclass" : "newobj",
					"numinlets" : 2,
					"numoutlets" : 3,
					"outlettype" : [ "", "", "" ],
					"patching_rect" : [ 613.0, 124.0, 89.0, 22.0 ],
					"style" : "",
					"text" : "data-handler-L"
				}

			}
, 			{
				"box" : 				{
					"comment" : "turn generator off/on (0. - .49 = off, .5 - 1.0 = on). 0/1 (integer) turns module off/on.",
					"id" : "obj-11",
					"index" : 1,
					"maxclass" : "inlet",
					"numinlets" : 0,
					"numoutlets" : 1,
					"outlettype" : [ "" ],
					"patching_rect" : [ 613.0, 34.0, 25.0, 25.0 ],
					"style" : ""
				}

			}
, 			{
				"box" : 				{
					"activebgcolor" : [ 0.1, 0.1, 0.1, 1.0 ],
					"activebgoncolor" : [ 0.8, 0.396, 0.0, 1.0 ],
					"bgcolor" : [ 0.1, 0.1, 0.1, 1.0 ],
					"bgoncolor" : [ 0.8, 0.396, 0.0, 1.0 ],
					"bordercolor" : [ 0.8, 0.396, 0.0, 1.0 ],
					"focusbordercolor" : [ 0.8, 0.396, 0.0, 1.0 ],
					"hint" : "Data input (0. - .49 = off, .5 - 1.0 = on). 0/1 (integer) turns module off/on.",
					"id" : "obj-30",
					"ignoreclick" : 1,
					"maxclass" : "live.toggle",
					"numinlets" : 1,
					"numoutlets" : 1,
					"outlettype" : [ "" ],
					"parameter_enable" : 1,
					"patching_rect" : [ 724.0, 133.0, 15.0, 15.0 ],
					"presentation" : 1,
					"presentation_rect" : [ 5.0, 3.0, 9.742592, 9.742592 ],
					"rounded" : 15.0,
					"saved_attribute_attributes" : 					{
						"valueof" : 						{
							"parameter_longname" : "pictctrl[166]",
							"parameter_shortname" : "pictctrl[1]",
							"parameter_type" : 2,
							"parameter_mmax" : 1.0,
							"parameter_enum" : [ "off", "on" ],
							"parameter_initial_enable" : 1,
							"parameter_initial" : [ 1 ]
						}

					}
,
					"varname" : "pictctrl[18]"
				}

			}
, 			{
				"box" : 				{
					"fontname" : "Arial",
					"fontsize" : 12.0,
					"id" : "obj-103",
					"maxclass" : "newobj",
					"numinlets" : 1,
					"numoutlets" : 3,
					"outlettype" : [ "", "", "" ],
					"patching_rect" : [ 541.0, 289.0, 57.0, 22.0 ],
					"restore" : [ 7 ],
					"saved_object_attributes" : 					{
						"parameter_enable" : 0
					}
,
					"style" : "",
					"text" : "pattr incr",
					"varname" : "incr"
				}

			}
, 			{
				"box" : 				{
					"fontname" : "Arial",
					"fontsize" : 12.0,
					"id" : "obj-98",
					"maxclass" : "newobj",
					"numinlets" : 1,
					"numoutlets" : 3,
					"outlettype" : [ "", "", "" ],
					"patching_rect" : [ 724.0, 320.0, 73.0, 22.0 ],
					"restore" : [ 1.0, 0.75, 0.774194, 0.774194, 0.725806, 0.580645, 0.467742, 0.427419 ],
					"saved_object_attributes" : 					{
						"parameter_enable" : 0
					}
,
					"style" : "",
					"text" : "pattr values",
					"varname" : "values"
				}

			}
, 			{
				"box" : 				{
					"fontname" : "Arial",
					"fontsize" : 12.0,
					"id" : "obj-96",
					"maxclass" : "newobj",
					"numinlets" : 1,
					"numoutlets" : 3,
					"outlettype" : [ "", "", "" ],
					"patching_rect" : [ 503.0, 127.0, 67.0, 22.0 ],
					"restore" : [ 8 ],
					"saved_object_attributes" : 					{
						"parameter_enable" : 0
					}
,
					"style" : "",
					"text" : "pattr steps",
					"varname" : "steps"
				}

			}
, 			{
				"box" : 				{
					"fontname" : "Arial",
					"fontsize" : 12.0,
					"id" : "obj-90",
					"maxclass" : "newobj",
					"numinlets" : 2,
					"numoutlets" : 1,
					"outlettype" : [ "int" ],
					"patching_rect" : [ 1098.0, 173.0, 32.5, 22.0 ],
					"style" : "",
					"text" : "+ 1"
				}

			}
, 			{
				"box" : 				{
					"fontname" : "Arial",
					"fontsize" : 12.0,
					"id" : "obj-91",
					"maxclass" : "newobj",
					"numinlets" : 2,
					"numoutlets" : 2,
					"outlettype" : [ "", "" ],
					"patching_rect" : [ 1044.0, 133.0, 78.0, 22.0 ],
					"style" : "",
					"text" : "data-handler"
				}

			}
, 			{
				"box" : 				{
					"comment" : "set count increment (0. - 1.0, off/on)",
					"id" : "obj-92",
					"index" : 4,
					"maxclass" : "inlet",
					"numinlets" : 0,
					"numoutlets" : 1,
					"outlettype" : [ "" ],
					"patching_rect" : [ 1044.0, 34.0, 25.0, 25.0 ],
					"style" : ""
				}

			}
, 			{
				"box" : 				{
					"fontface" : 0,
					"fontname" : "Arial",
					"fontsize" : 12.0,
					"id" : "obj-93",
					"maxclass" : "newobj",
					"numinlets" : 6,
					"numoutlets" : 1,
					"outlettype" : [ "" ],
					"patching_rect" : [ 1044.0, 198.0, 92.0, 22.0 ],
					"style" : "",
					"text" : "scale 0. 1. 1 23"
				}

			}
, 			{
				"box" : 				{
					"activebgcolor" : [ 0.1, 0.1, 0.1, 1.0 ],
					"activebgoncolor" : [ 0.8, 0.396, 0.0, 1.0 ],
					"bgcolor" : [ 0.1, 0.1, 0.1, 1.0 ],
					"bgoncolor" : [ 0.8, 0.396, 0.0, 1.0 ],
					"bordercolor" : [ 0.8, 0.396, 0.0, 1.0 ],
					"focusbordercolor" : [ 0.8, 0.396, 0.0, 1.0 ],
					"hint" : "Data received in this inlet will set the count increment",
					"id" : "obj-94",
					"ignoreclick" : 1,
					"maxclass" : "live.toggle",
					"numinlets" : 1,
					"numoutlets" : 1,
					"outlettype" : [ "" ],
					"parameter_enable" : 1,
					"patching_rect" : [ 1155.0, 136.0, 15.0, 15.0 ],
					"presentation" : 1,
					"presentation_rect" : [ 196.399994, 3.0, 9.742592, 9.742592 ],
					"rounded" : 15.0,
					"saved_attribute_attributes" : 					{
						"valueof" : 						{
							"parameter_longname" : "pictctrl[169]",
							"parameter_shortname" : "pictctrl[1]",
							"parameter_type" : 2,
							"parameter_mmax" : 1.0,
							"parameter_enum" : [ "off", "on" ],
							"parameter_initial_enable" : 1,
							"parameter_initial" : [ 1 ]
						}

					}
,
					"varname" : "pictctrl[15]"
				}

			}
, 			{
				"box" : 				{
					"fontname" : "Arial",
					"fontsize" : 12.0,
					"id" : "obj-86",
					"maxclass" : "newobj",
					"numinlets" : 1,
					"numoutlets" : 4,
					"outlettype" : [ "int", "int", "int", "int" ],
					"patching_rect" : [ 527.0, 205.0, 59.5, 22.0 ],
					"style" : "",
					"text" : "t i i i i"
				}

			}
, 			{
				"box" : 				{
					"fontname" : "Arial",
					"fontsize" : 12.0,
					"id" : "obj-39",
					"maxclass" : "newobj",
					"numinlets" : 2,
					"numoutlets" : 1,
					"outlettype" : [ "int" ],
					"patching_rect" : [ 259.0, 311.0, 32.5, 22.0 ],
					"style" : "",
					"text" : "+ 1"
				}

			}
, 			{
				"box" : 				{
					"bgcolor" : [ 1.0, 1.0, 1.0, 1.0 ],
					"fontname" : "Arial",
					"fontsize" : 12.0,
					"format" : 6,
					"htricolor" : [ 0.960784, 0.827451, 0.156863, 1.0 ],
					"id" : "obj-104",
					"maxclass" : "flonum",
					"numinlets" : 1,
					"numoutlets" : 2,
					"outlettype" : [ "", "bang" ],
					"parameter_enable" : 0,
					"patching_rect" : [ 702.0, 500.0, 50.0, 22.0 ],
					"style" : "",
					"textcolor" : [ 0.0, 0.0, 0.0, 1.0 ],
					"tricolor" : [ 0.592157, 0.658824, 0.694118, 1.0 ]
				}

			}
, 			{
				"box" : 				{
					"fontname" : "Arial",
					"fontsize" : 12.0,
					"id" : "obj-102",
					"maxclass" : "newobj",
					"numinlets" : 1,
					"numoutlets" : 2,
					"outlettype" : [ "", "" ],
					"patcher" : 					{
						"fileversion" : 1,
						"appversion" : 						{
							"major" : 7,
							"minor" : 3,
							"revision" : 5,
							"architecture" : "x86",
							"modernui" : 1
						}
,
						"rect" : [ 75.0, 119.0, 640.0, 480.0 ],
						"bglocked" : 0,
						"openinpresentation" : 0,
						"default_fontsize" : 12.0,
						"default_fontface" : 0,
						"default_fontname" : "Arial",
						"gridonopen" : 1,
						"gridsize" : [ 8.0, 8.0 ],
						"gridsnaponopen" : 1,
						"objectsnaponopen" : 1,
						"statusbarvisible" : 2,
						"toolbarvisible" : 1,
						"lefttoolbarpinned" : 0,
						"toptoolbarpinned" : 0,
						"righttoolbarpinned" : 0,
						"bottomtoolbarpinned" : 0,
						"toolbars_unpinned_last_save" : 0,
						"tallnewobj" : 0,
						"boxanimatetime" : 200,
						"enablehscroll" : 0,
						"enablevscroll" : 0,
						"devicewidth" : 0.0,
						"description" : "",
						"digest" : "",
						"tags" : "",
						"style" : "",
						"subpatcher_template" : "",
						"boxes" : [ 							{
								"box" : 								{
									"fontname" : "Arial",
									"fontsize" : 12.0,
									"id" : "obj-4",
									"maxclass" : "newobj",
									"numinlets" : 2,
									"numoutlets" : 2,
									"outlettype" : [ "", "" ],
									"patching_rect" : [ 50.0, 168.0, 43.0, 20.0 ],
									"style" : "",
									"text" : "zl mth"
								}

							}
, 							{
								"box" : 								{
									"fontname" : "Arial",
									"fontsize" : 12.0,
									"id" : "obj-3",
									"maxclass" : "newobj",
									"numinlets" : 2,
									"numoutlets" : 2,
									"outlettype" : [ "", "" ],
									"patching_rect" : [ 71.0, 134.0, 69.0, 20.0 ],
									"style" : "",
									"text" : "zl compare"
								}

							}
, 							{
								"box" : 								{
									"fontname" : "Arial",
									"fontsize" : 12.0,
									"id" : "obj-2",
									"maxclass" : "newobj",
									"numinlets" : 1,
									"numoutlets" : 3,
									"outlettype" : [ "", "", "" ],
									"patching_rect" : [ 50.0, 100.0, 96.0, 20.0 ],
									"style" : "",
									"text" : "t l l l"
								}

							}
, 							{
								"box" : 								{
									"comment" : "",
									"id" : "obj-15",
									"index" : 1,
									"maxclass" : "inlet",
									"numinlets" : 0,
									"numoutlets" : 1,
									"outlettype" : [ "" ],
									"patching_rect" : [ 50.0, 40.0, 25.0, 25.0 ],
									"style" : ""
								}

							}
, 							{
								"box" : 								{
									"comment" : "",
									"id" : "obj-16",
									"index" : 1,
									"maxclass" : "outlet",
									"numinlets" : 1,
									"numoutlets" : 0,
									"patching_rect" : [ 50.0, 248.0, 25.0, 25.0 ],
									"style" : ""
								}

							}
, 							{
								"box" : 								{
									"comment" : "",
									"id" : "obj-17",
									"index" : 2,
									"maxclass" : "outlet",
									"numinlets" : 1,
									"numoutlets" : 0,
									"patching_rect" : [ 121.0, 248.0, 25.0, 25.0 ],
									"style" : ""
								}

							}
 ],
						"lines" : [ 							{
								"patchline" : 								{
									"destination" : [ "obj-2", 0 ],
									"source" : [ "obj-15", 0 ]
								}

							}
, 							{
								"patchline" : 								{
									"destination" : [ "obj-3", 0 ],
									"source" : [ "obj-2", 2 ]
								}

							}
, 							{
								"patchline" : 								{
									"destination" : [ "obj-3", 1 ],
									"source" : [ "obj-2", 1 ]
								}

							}
, 							{
								"patchline" : 								{
									"destination" : [ "obj-4", 0 ],
									"source" : [ "obj-2", 0 ]
								}

							}
, 							{
								"patchline" : 								{
									"destination" : [ "obj-17", 0 ],
									"order" : 0,
									"source" : [ "obj-3", 1 ]
								}

							}
, 							{
								"patchline" : 								{
									"destination" : [ "obj-4", 1 ],
									"order" : 1,
									"source" : [ "obj-3", 1 ]
								}

							}
, 							{
								"patchline" : 								{
									"destination" : [ "obj-16", 0 ],
									"source" : [ "obj-4", 0 ]
								}

							}
 ]
					}
,
					"patching_rect" : [ 702.0, 474.0, 125.0, 22.0 ],
					"saved_object_attributes" : 					{
						"description" : "",
						"digest" : "",
						"globalpatchername" : "",
						"style" : "",
						"tags" : ""
					}
,
					"style" : "",
					"text" : "p current-slider-value"
				}

			}
, 			{
				"box" : 				{
					"fontname" : "Arial",
					"fontsize" : 12.0,
					"id" : "obj-100",
					"maxclass" : "message",
					"numinlets" : 2,
					"numoutlets" : 1,
					"outlettype" : [ "" ],
					"patching_rect" : [ 615.0, 282.0, 79.0, 22.0 ],
					"style" : "",
					"text" : "maximum $1"
				}

			}
, 			{
				"box" : 				{
					"fontname" : "Arial",
					"fontsize" : 12.0,
					"id" : "obj-99",
					"maxclass" : "newobj",
					"numinlets" : 2,
					"numoutlets" : 1,
					"outlettype" : [ "int" ],
					"patching_rect" : [ 615.0, 260.0, 32.5, 22.0 ],
					"style" : "",
					"text" : "- 1"
				}

			}
, 			{
				"box" : 				{
					"fontname" : "Arial",
					"fontsize" : 12.0,
					"id" : "obj-97",
					"maxclass" : "message",
					"numinlets" : 2,
					"numoutlets" : 1,
					"outlettype" : [ "" ],
					"patching_rect" : [ 362.0, 488.0, 53.0, 22.0 ],
					"style" : "",
					"text" : "fetch $1"
				}

			}
, 			{
				"box" : 				{
					"fontname" : "Arial",
					"fontsize" : 12.0,
					"id" : "obj-56",
					"maxclass" : "newobj",
					"numinlets" : 2,
					"numoutlets" : 1,
					"outlettype" : [ "int" ],
					"patching_rect" : [ 362.0, 372.0, 33.0, 22.0 ],
					"style" : "",
					"text" : "int 0"
				}

			}
, 			{
				"box" : 				{
					"fontname" : "Arial",
					"fontsize" : 12.0,
					"id" : "obj-46",
					"maxclass" : "newobj",
					"numinlets" : 2,
					"numoutlets" : 1,
					"outlettype" : [ "int" ],
					"patching_rect" : [ 362.0, 440.0, 33.0, 22.0 ],
					"style" : "",
					"text" : "% 8"
				}

			}
, 			{
				"box" : 				{
					"fontname" : "Arial",
					"fontsize" : 12.0,
					"id" : "obj-45",
					"maxclass" : "newobj",
					"numinlets" : 2,
					"numoutlets" : 1,
					"outlettype" : [ "int" ],
					"patching_rect" : [ 362.0, 404.0, 33.0, 22.0 ],
					"style" : "",
					"text" : "+ 1"
				}

			}
, 			{
				"box" : 				{
					"fontname" : "Arial",
					"fontsize" : 12.0,
					"id" : "obj-38",
					"maxclass" : "message",
					"numinlets" : 2,
					"numoutlets" : 1,
					"outlettype" : [ "" ],
					"patching_rect" : [ 702.0, 282.0, 49.0, 22.0 ],
					"style" : "",
					"text" : "size $1"
				}

			}
, 			{
				"box" : 				{
					"fontname" : "Arial",
					"fontsize" : 12.0,
					"id" : "obj-62",
					"maxclass" : "newobj",
					"numinlets" : 0,
					"numoutlets" : 1,
					"outlettype" : [ "" ],
					"patching_rect" : [ 297.0, 120.0, 110.0, 22.0 ],
					"style" : "",
					"text" : "r ---SyncStart"
				}

			}
, 			{
				"box" : 				{
					"fontname" : "Arial",
					"fontsize" : 12.0,
					"id" : "obj-65",
					"maxclass" : "newobj",
					"numinlets" : 0,
					"numoutlets" : 1,
					"outlettype" : [ "" ],
					"patching_rect" : [ 393.0, 274.0, 116.0, 22.0 ],
					"style" : "",
					"text" : "r ---SyncReset"
				}

			}
, 			{
				"box" : 				{
					"fontname" : "Arial",
					"fontsize" : 12.0,
					"id" : "obj-77",
					"maxclass" : "newobj",
					"numinlets" : 1,
					"numoutlets" : 3,
					"outlettype" : [ "int", "int", "bang" ],
					"patching_rect" : [ 297.0, 282.0, 46.0, 22.0 ],
					"style" : "",
					"text" : "t i i b"
				}

			}
, 			{
				"box" : 				{
					"fontname" : "Arial",
					"fontsize" : 12.0,
					"id" : "obj-75",
					"maxclass" : "message",
					"numinlets" : 2,
					"numoutlets" : 1,
					"outlettype" : [ "" ],
					"patching_rect" : [ 377.0, 309.0, 33.0, 22.0 ],
					"style" : "",
					"text" : "0"
				}

			}
, 			{
				"box" : 				{
					"fontname" : "Arial",
					"fontsize" : 12.0,
					"id" : "obj-73",
					"maxclass" : "newobj",
					"numinlets" : 2,
					"numoutlets" : 1,
					"outlettype" : [ "bang" ],
					"patching_rect" : [ 297.0, 310.0, 58.0, 22.0 ],
					"style" : "",
					"text" : "metro 20"
				}

			}
, 			{
				"box" : 				{
					"fontname" : "Arial",
					"fontsize" : 12.0,
					"id" : "obj-26",
					"maxclass" : "newobj",
					"numinlets" : 6,
					"numoutlets" : 1,
					"outlettype" : [ "" ],
					"patching_rect" : [ 323.0, 668.0, 99.0, 22.0 ],
					"style" : "",
					"text" : "scale 0. 1. 0. 1."
				}

			}
, 			{
				"box" : 				{
					"fontname" : "Arial",
					"fontsize" : 12.0,
					"id" : "obj-72",
					"maxclass" : "newobj",
					"numinlets" : 3,
					"numoutlets" : 1,
					"outlettype" : [ "" ],
					"patching_rect" : [ 323.0, 692.0, 55.0, 22.0 ],
					"style" : "",
					"text" : "clip 0. 1."
				}

			}
, 			{
				"box" : 				{
					"fontname" : "Arial",
					"fontsize" : 12.0,
					"id" : "obj-66",
					"maxclass" : "newobj",
					"numinlets" : 2,
					"numoutlets" : 1,
					"outlettype" : [ "" ],
					"patching_rect" : [ 261.0, 887.0, 54.0, 22.0 ],
					"style" : "",
					"text" : "gate 1 1"
				}

			}
, 			{
				"box" : 				{
					"activebgcolor" : [ 0.1, 0.1, 0.1, 1.0 ],
					"activebgoncolor" : [ 0.8, 0.396, 0.0, 1.0 ],
					"bgcolor" : [ 0.1, 0.1, 0.1, 1.0 ],
					"bgoncolor" : [ 0.8, 0.396, 0.0, 1.0 ],
					"bordercolor" : [ 0.8, 0.396, 0.0, 1.0 ],
					"focusbordercolor" : [ 0.8, 0.396, 0.0, 1.0 ],
					"hint" : "Outputs the value corresponding to the current position in the step sequencer",
					"id" : "obj-67",
					"ignoreclick" : 1,
					"maxclass" : "live.toggle",
					"numinlets" : 1,
					"numoutlets" : 1,
					"outlettype" : [ "" ],
					"parameter_enable" : 1,
					"patching_rect" : [ 261.0, 857.0, 15.0, 15.0 ],
					"presentation" : 1,
					"presentation_rect" : [ 5.0, 169.0, 9.742592, 9.742592 ],
					"rounded" : 15.0,
					"saved_attribute_attributes" : 					{
						"valueof" : 						{
							"parameter_longname" : "pictctrl[170]",
							"parameter_shortname" : "pictctrl[1]",
							"parameter_type" : 2,
							"parameter_mmax" : 1.0,
							"parameter_enum" : [ "off", "on" ],
							"parameter_initial_enable" : 1,
							"parameter_initial" : [ 1 ]
						}

					}
,
					"varname" : "pictctrl[4]"
				}

			}
, 			{
				"box" : 				{
					"comment" : "data out (0. - 1.0, off/on)",
					"id" : "obj-68",
					"index" : 1,
					"maxclass" : "outlet",
					"numinlets" : 1,
					"numoutlets" : 0,
					"patching_rect" : [ 261.0, 918.0, 25.0, 25.0 ],
					"style" : ""
				}

			}
, 			{
				"box" : 				{
					"fontname" : "Arial",
					"fontsize" : 12.0,
					"id" : "obj-18",
					"maxclass" : "newobj",
					"numinlets" : 2,
					"numoutlets" : 2,
					"outlettype" : [ "", "" ],
					"patching_rect" : [ 906.0, 133.0, 78.0, 22.0 ],
					"style" : "",
					"text" : "data-handler"
				}

			}
, 			{
				"box" : 				{
					"fontname" : "Arial",
					"fontsize" : 12.0,
					"id" : "obj-27",
					"maxclass" : "newobj",
					"numinlets" : 1,
					"numoutlets" : 3,
					"outlettype" : [ "bang", "int", "float" ],
					"patching_rect" : [ 1665.0, 44.0, 67.0, 22.0 ],
					"style" : "",
					"text" : "t b 1 0.125"
				}

			}
, 			{
				"box" : 				{
					"comment" : "set # of steps (0. - 1.0, off/on)",
					"id" : "obj-31",
					"index" : 3,
					"maxclass" : "inlet",
					"numinlets" : 0,
					"numoutlets" : 1,
					"outlettype" : [ "" ],
					"patching_rect" : [ 906.0, 34.0, 25.0, 25.0 ],
					"style" : ""
				}

			}
, 			{
				"box" : 				{
					"fontname" : "Arial",
					"fontsize" : 12.0,
					"id" : "obj-24",
					"maxclass" : "newobj",
					"numinlets" : 1,
					"numoutlets" : 1,
					"outlettype" : [ "bang" ],
					"patching_rect" : [ 1665.0, 17.0, 60.0, 22.0 ],
					"style" : "",
					"text" : "loadbang"
				}

			}
, 			{
				"box" : 				{
					"fontface" : 0,
					"fontname" : "Arial",
					"fontsize" : 12.0,
					"id" : "obj-8",
					"maxclass" : "newobj",
					"numinlets" : 6,
					"numoutlets" : 1,
					"outlettype" : [ "" ],
					"patching_rect" : [ 906.0, 198.0, 92.0, 22.0 ],
					"style" : "",
					"text" : "scale 0. 1. 1 24"
				}

			}
, 			{
				"box" : 				{
					"activebgcolor" : [ 0.1, 0.1, 0.1, 1.0 ],
					"activebgoncolor" : [ 0.8, 0.396, 0.0, 1.0 ],
					"bgcolor" : [ 0.1, 0.1, 0.1, 1.0 ],
					"bgoncolor" : [ 0.8, 0.396, 0.0, 1.0 ],
					"bordercolor" : [ 0.8, 0.396, 0.0, 1.0 ],
					"focusbordercolor" : [ 0.8, 0.396, 0.0, 1.0 ],
					"hint" : "Data received in this inlet will set the number of steps",
					"id" : "obj-21",
					"ignoreclick" : 1,
					"maxclass" : "live.toggle",
					"numinlets" : 1,
					"numoutlets" : 1,
					"outlettype" : [ "" ],
					"parameter_enable" : 1,
					"patching_rect" : [ 1017.0, 136.0, 15.0, 15.0 ],
					"presentation" : 1,
					"presentation_rect" : [ 132.600006, 3.0, 9.742592, 9.742592 ],
					"rounded" : 15.0,
					"saved_attribute_attributes" : 					{
						"valueof" : 						{
							"parameter_longname" : "pictctrl[171]",
							"parameter_shortname" : "pictctrl[1]",
							"parameter_type" : 2,
							"parameter_mmax" : 1.0,
							"parameter_enum" : [ "off", "on" ],
							"parameter_initial_enable" : 1,
							"parameter_initial" : [ 1 ]
						}

					}
,
					"varname" : "pictctrl[16]"
				}

			}
, 			{
				"box" : 				{
					"activedialcolor" : [ 1.0, 0.552941, 0.0, 1.0 ],
					"activeneedlecolor" : [ 1.0, 1.0, 1.0, 0.7 ],
					"hint" : "Sets the rate for counting.",
					"id" : "obj-22",
					"maxclass" : "live.dial",
					"numinlets" : 1,
					"numoutlets" : 2,
					"outlettype" : [ "", "float" ],
					"parameter_enable" : 1,
					"patching_rect" : [ 754.0, 238.498413, 44.0, 47.0 ],
					"presentation" : 1,
					"presentation_rect" : [ 174.134384, 48.0, 50.0, 47.0 ],
					"saved_attribute_attributes" : 					{
						"valueof" : 						{
							"parameter_longname" : "speed[4]",
							"parameter_shortname" : "speed",
							"parameter_type" : 0,
							"parameter_mmin" : 5.0,
							"parameter_mmax" : 500.0,
							"parameter_initial_enable" : 1,
							"parameter_initial" : [ 100.0 ],
							"parameter_unitstyle" : 0
						}

					}
,
					"textcolor" : [ 1.0, 1.0, 1.0, 0.7 ],
					"varname" : "PW[1]"
				}

			}
, 			{
				"box" : 				{
					"activedialcolor" : [ 1.0, 0.553, 0.0, 1.0 ],
					"activeneedlecolor" : [ 1.0, 1.0, 1.0, 0.7 ],
					"hint" : "Sets the amount of data smoothing applied to the output.",
					"id" : "obj-10",
					"maxclass" : "live.dial",
					"numinlets" : 1,
					"numoutlets" : 2,
					"outlettype" : [ "", "float" ],
					"parameter_enable" : 1,
					"patching_rect" : [ 349.5, 740.0, 44.0, 47.0 ],
					"presentation" : 1,
					"presentation_rect" : [ 265.634399, 110.057129, 60.0, 47.0 ],
					"saved_attribute_attributes" : 					{
						"valueof" : 						{
							"parameter_longname" : "smoothing",
							"parameter_shortname" : "smoothing",
							"parameter_type" : 0,
							"parameter_mmax" : 100.0,
							"parameter_initial_enable" : 1,
							"parameter_initial" : [ 0.0 ],
							"parameter_unitstyle" : 5
						}

					}
,
					"textcolor" : [ 1.0, 1.0, 1.0, 0.7 ],
					"varname" : "slider[3]"
				}

			}
, 			{
				"box" : 				{
					"fontname" : "Arial",
					"fontsize" : 10.0,
					"id" : "obj-6",
					"maxclass" : "comment",
					"numinlets" : 1,
					"numoutlets" : 0,
					"patching_rect" : [ 44.609558, 417.0, 136.0, 18.0 ],
					"presentation" : 1,
					"presentation_rect" : [ 203.525192, 113.057129, 57.0, 18.0 ],
					"style" : "",
					"text" : "randomize",
					"textcolor" : [ 0.753, 0.784, 0.839, 1.0 ]
				}

			}
, 			{
				"box" : 				{
					"activebgcolor" : [ 0.8, 0.396, 0.0, 1.0 ],
					"activebgoncolor" : [ 1.0, 0.553, 0.0, 1.0 ],
					"bgcolor" : [ 0.8, 0.396, 0.0, 1.0 ],
					"bgoncolor" : [ 1.0, 0.553, 0.0, 1.0 ],
					"bordercolor" : [ 0.1, 0.1, 0.1, 1.0 ],
					"hint" : "Toggles random step ouput.",
					"id" : "obj-7",
					"maxclass" : "live.toggle",
					"numinlets" : 1,
					"numoutlets" : 1,
					"outlettype" : [ "" ],
					"parameter_enable" : 1,
					"patching_rect" : [ 259.5, 289.0, 15.0, 15.0 ],
					"presentation" : 1,
					"presentation_rect" : [ 185.176559, 113.557129, 15.0, 15.0 ],
					"saved_attribute_attributes" : 					{
						"valueof" : 						{
							"parameter_longname" : "live.toggle",
							"parameter_shortname" : "live.toggle",
							"parameter_type" : 2,
							"parameter_mmax" : 1.0,
							"parameter_enum" : [ "off", "on" ],
							"parameter_initial_enable" : 1,
							"parameter_initial" : [ 0.0 ]
						}

					}
,
					"varname" : "live.toggle"
				}

			}
, 			{
				"box" : 				{
					"bgcolor" : [ 1.0, 0.553, 0.0, 1.0 ],
					"elementcolor" : [ 0.1, 0.1, 0.1, 1.0 ],
					"fgcolor" : [ 0.25098, 0.25098, 0.0, 1.0 ],
					"hint" : "Sets the number of steps (2 - 24)",
					"id" : "obj-80",
					"maxclass" : "incdec",
					"numinlets" : 1,
					"numoutlets" : 1,
					"outlettype" : [ "float" ],
					"parameter_enable" : 0,
					"patching_rect" : [ 589.5, 321.0, 20.0, 20.0 ],
					"presentation" : 1,
					"presentation_rect" : [ 240.390793, 79.0, 16.0, 16.0 ],
					"style" : ""
				}

			}
, 			{
				"box" : 				{
					"bgcolor" : [ 1.0, 1.0, 1.0, 0.0 ],
					"fontname" : "Arial",
					"fontsize" : 14.0,
					"htricolor" : [ 0.870588, 0.819608, 0.239216, 0.0 ],
					"id" : "obj-85",
					"ignoreclick" : 1,
					"maxclass" : "number",
					"maximum" : 7,
					"minimum" : 1,
					"numinlets" : 1,
					"numoutlets" : 2,
					"outlettype" : [ "", "bang" ],
					"parameter_enable" : 1,
					"patching_rect" : [ 615.0, 321.0, 55.0, 24.0 ],
					"presentation" : 1,
					"presentation_rect" : [ 254.134399, 76.0, 55.0, 24.0 ],
					"saved_attribute_attributes" : 					{
						"valueof" : 						{
							"parameter_longname" : "number[2]",
							"parameter_shortname" : "number[1]",
							"parameter_type" : 3,
							"parameter_initial_enable" : 1,
							"parameter_initial" : [ 1 ],
							"parameter_invisible" : 1
						}

					}
,
					"style" : "",
					"textcolor" : [ 1.0, 0.553, 0.0, 1.0 ],
					"triangle" : 0,
					"tricolor" : [ 0.592157, 0.658824, 0.694118, 1.0 ],
					"varname" : "number[1]"
				}

			}
, 			{
				"box" : 				{
					"bgcolor" : [ 1.0, 0.553, 0.0, 1.0 ],
					"elementcolor" : [ 0.1, 0.1, 0.1, 1.0 ],
					"fgcolor" : [ 0.25098, 0.25098, 0.0, 1.0 ],
					"hint" : "Sets the number of steps (2 - 24)",
					"id" : "obj-101",
					"maxclass" : "incdec",
					"numinlets" : 1,
					"numoutlets" : 1,
					"outlettype" : [ "float" ],
					"parameter_enable" : 0,
					"patching_rect" : [ 503.0, 174.0, 20.0, 20.0 ],
					"presentation" : 1,
					"presentation_rect" : [ 240.390793, 51.0, 16.0, 16.0 ],
					"style" : ""
				}

			}
, 			{
				"box" : 				{
					"bgcolor" : [ 1.0, 1.0, 1.0, 0.0 ],
					"fontname" : "Arial",
					"fontsize" : 14.0,
					"htricolor" : [ 0.870588, 0.819608, 0.239216, 0.0 ],
					"id" : "obj-41",
					"ignoreclick" : 1,
					"maxclass" : "number",
					"maximum" : 24,
					"minimum" : 2,
					"numinlets" : 1,
					"numoutlets" : 2,
					"outlettype" : [ "", "bang" ],
					"parameter_enable" : 1,
					"patching_rect" : [ 527.0, 173.0, 55.0, 24.0 ],
					"presentation" : 1,
					"presentation_rect" : [ 254.134399, 48.0, 55.0, 24.0 ],
					"saved_attribute_attributes" : 					{
						"valueof" : 						{
							"parameter_longname" : "number[3]",
							"parameter_shortname" : "number",
							"parameter_type" : 3,
							"parameter_initial_enable" : 1,
							"parameter_initial" : [ 8 ],
							"parameter_invisible" : 1
						}

					}
,
					"style" : "",
					"textcolor" : [ 1.0, 0.553, 0.0, 1.0 ],
					"triangle" : 0,
					"tricolor" : [ 0.592157, 0.658824, 0.694118, 1.0 ],
					"varname" : "number"
				}

			}
, 			{
				"box" : 				{
					"fontface" : 1,
					"fontname" : "Arial",
					"fontsize" : 10.0,
					"id" : "obj-82",
					"linecount" : 2,
					"maxclass" : "comment",
					"numinlets" : 1,
					"numoutlets" : 0,
					"patching_rect" : [ 597.5, 740.0, 52.0, 29.0 ],
					"presentation" : 1,
					"presentation_rect" : [ 273.134399, 80.0, 58.0, 18.0 ],
					"style" : "",
					"text" : "increment",
					"textcolor" : [ 0.753, 0.784, 0.839, 1.0 ]
				}

			}
, 			{
				"box" : 				{
					"fontface" : 1,
					"fontname" : "Arial",
					"fontsize" : 10.0,
					"id" : "obj-25",
					"maxclass" : "comment",
					"numinlets" : 1,
					"numoutlets" : 0,
					"patching_rect" : [ 598.5, 718.0, 37.0, 18.0 ],
					"presentation" : 1,
					"presentation_rect" : [ 273.134399, 51.0, 37.0, 18.0 ],
					"style" : "",
					"text" : "steps",
					"textcolor" : [ 0.753, 0.784, 0.839, 1.0 ]
				}

			}
, 			{
				"box" : 				{
					"activebgcolor" : [ 1.0, 0.552941, 0.0, 1.0 ],
					"activebgoncolor" : [ 0.8, 0.396078, 0.0, 1.0 ],
					"activetextcolor" : [ 0.1, 0.1, 0.1, 1.0 ],
					"activetextoncolor" : [ 1.0, 1.0, 1.0, 1.0 ],
					"automation" : "R",
					"automationon" : "R",
					"bgcolor" : [ 1.0, 0.552941, 0.0, 1.0 ],
					"bgoncolor" : [ 0.8, 0.396078, 0.0, 1.0 ],
					"bordercolor" : [ 0.8, 0.396078, 0.0, 1.0 ],
					"focusbordercolor" : [ 0.8, 0.396078, 0.0, 1.0 ],
					"fontface" : 0,
					"fontname" : "Arial Bold",
					"fontsize" : 8.0,
					"hint" : "Restarts the generation of values at mid-range.",
					"id" : "obj-57",
					"maxclass" : "live.text",
					"mode" : 0,
					"numinlets" : 1,
					"numoutlets" : 2,
					"outlettype" : [ "", "" ],
					"parameter_enable" : 1,
					"patching_rect" : [ 378.0, 254.0, 20.0, 20.0 ],
					"presentation" : 1,
					"presentation_rect" : [ 287.525208, 19.235352, 16.0, 16.0 ],
					"rounded" : 16.0,
					"saved_attribute_attributes" : 					{
						"valueof" : 						{
							"parameter_longname" : "FreqMode[3]",
							"parameter_shortname" : "FreqMode",
							"parameter_type" : 2,
							"parameter_mmax" : 1.0,
							"parameter_enum" : [ "R", "R" ]
						}

					}
,
					"text" : "R",
					"textcolor" : [ 1.0, 1.0, 1.0, 1.0 ],
					"texton" : "R",
					"varname" : "FreqMode[3]"
				}

			}
, 			{
				"box" : 				{
					"bgcolor" : [ 0.1, 0.1, 0.1, 1.0 ],
					"contdata" : 1,
					"hint" : "Click and drag to set value. Clicking on an individual slider will send it value out the module's outlet",
					"id" : "obj-1",
					"maxclass" : "multislider",
					"numinlets" : 1,
					"numoutlets" : 2,
					"outlettype" : [ "", "" ],
					"parameter_enable" : 1,
					"patching_rect" : [ 702.0, 363.0, 168.0, 124.0 ],
					"peakcolor" : [ 0.592157, 0.658824, 0.694118, 1.0 ],
					"presentation" : 1,
					"presentation_rect" : [ 3.0, 40.057129, 168.0, 124.0 ],
					"saved_attribute_attributes" : 					{
						"valueof" : 						{
							"parameter_longname" : "multislider[1]",
							"parameter_shortname" : "multislider",
							"parameter_type" : 3,
							"parameter_initial_enable" : 1,
							"parameter_initial" : [ 0.5, 0.77551, 0.102041, 0.306122, 0.897959, 0.734694, 0.438776, 0.183673 ],
							"parameter_invisible" : 1
						}

					}
,
					"setminmax" : [ 0.0, 1.0 ],
					"setstyle" : 1,
					"size" : 8,
					"slidercolor" : [ 1.0, 0.553, 0.0, 1.0 ],
					"spacing" : 1,
					"style" : "",
					"thickness" : 1,
					"varname" : "multislider[1]"
				}

			}
, 			{
				"box" : 				{
					"fontname" : "Arial Bold",
					"fontsize" : 9.0,
					"hint" : "The CYCLR is a simple step sequencer that outputs values in the 0 - 1.0 Vizzie data range. You can count up by increments from one to the number of steps minus one.",
					"id" : "obj-44",
					"maxclass" : "comment",
					"numinlets" : 1,
					"numoutlets" : 0,
					"patching_rect" : [ 44.609558, 370.771027, 50.0, 17.0 ],
					"presentation" : 1,
					"presentation_rect" : [ 3.0, 18.0, 86.0, 17.0 ],
					"style" : "",
					"text" : "CYCLR",
					"textcolor" : [ 1.0, 1.0, 1.0, 1.0 ]
				}

			}
, 			{
				"box" : 				{
					"activebgcolor" : [ 0.1, 0.1, 0.1, 1.0 ],
					"activebgoncolor" : [ 0.8, 0.396, 0.0, 1.0 ],
					"bgcolor" : [ 0.1, 0.1, 0.1, 1.0 ],
					"bgoncolor" : [ 0.8, 0.396, 0.0, 1.0 ],
					"bordercolor" : [ 0.8, 0.396, 0.0, 1.0 ],
					"focusbordercolor" : [ 0.8, 0.396, 0.0, 1.0 ],
					"hint" : "Data received in this inlet sets the voltage range for audio input data.",
					"id" : "obj-74",
					"ignoreclick" : 1,
					"maxclass" : "live.toggle",
					"numinlets" : 1,
					"numoutlets" : 1,
					"outlettype" : [ "" ],
					"parameter_enable" : 1,
					"patching_rect" : [ 113.5, 57.006989, 15.0, 15.0 ],
					"presentation" : 1,
					"presentation_rect" : [ 3.999985, 2.0, 9.742592, 9.742592 ],
					"rounded" : 15.0,
					"saved_attribute_attributes" : 					{
						"valueof" : 						{
							"parameter_longname" : "pictctrl[172]",
							"parameter_shortname" : "pictctrl[1]",
							"parameter_type" : 2,
							"parameter_mmax" : 1.0,
							"parameter_enum" : [ "off", "on" ],
							"parameter_initial_enable" : 1,
							"parameter_initial" : [ 1 ]
						}

					}
,
					"varname" : "pictctrl[1]"
				}

			}
, 			{
				"box" : 				{
					"align" : 2,
					"bgcolor" : [ 0.3, 0.3, 0.3, 1.0 ],
					"bgoncolor" : [ 0.8, 0.396078, 0.0, 1.0 ],
					"fontname" : "Arial Bold",
					"fontsize" : 9.0,
					"hint" : "Click on the bar to turn the output on or off.",
					"id" : "obj-117",
					"legacytextcolor" : 1,
					"maxclass" : "textbutton",
					"mode" : 1,
					"numinlets" : 1,
					"numoutlets" : 3,
					"outlettype" : [ "", "", "int" ],
					"parameter_enable" : 1,
					"patching_rect" : [ 297.0, 182.0, 40.0, 20.0 ],
					"presentation" : 1,
					"presentation_rect" : [ 0.0, 17.0, 338.134399, 19.0 ],
					"saved_attribute_attributes" : 					{
						"valueof" : 						{
							"parameter_longname" : "textbutton[10]",
							"parameter_shortname" : "textbutton[1]",
							"parameter_type" : 3,
							"parameter_initial_enable" : 1,
							"parameter_initial" : [ 1.0 ],
							"parameter_invisible" : 1
						}

					}
,
					"style" : "",
					"text" : "OFF  ",
					"textcolor" : [ 1.0, 1.0, 1.0, 1.0 ],
					"textjustification" : 2,
					"texton" : "ON  ",
					"textoncolor" : [ 0.905882, 0.909804, 0.917647, 1.0 ],
					"textovercolor" : [ 0.1, 0.1, 0.1, 1.0 ],
					"usebgoncolor" : 1,
					"usetextovercolor" : 1,
					"varname" : "module-onoff"
				}

			}
, 			{
				"box" : 				{
					"angle" : 0.0,
					"bgcolor" : [ 0.8, 0.396078, 0.0, 1.0 ],
					"id" : "obj-76",
					"maxclass" : "panel",
					"mode" : 0,
					"numinlets" : 1,
					"numoutlets" : 0,
					"patching_rect" : [ 37.609558, 124.73999, 64.0, 64.0 ],
					"presentation" : 1,
					"presentation_rect" : [ 0.0, 17.0, 437.268768, 19.0 ],
					"proportion" : 0.39,
					"rounded" : 0,
					"style" : ""
				}

			}
, 			{
				"box" : 				{
					"angle" : 0.0,
					"bgcolor" : [ 0.0, 0.0, 0.0, 1.0 ],
					"id" : "obj-78",
					"maxclass" : "panel",
					"mode" : 0,
					"numinlets" : 1,
					"numoutlets" : 0,
					"patching_rect" : [ 37.609558, 57.006989, 64.0, 64.0 ],
					"presentation" : 1,
					"presentation_rect" : [ 0.0, 0.0, 437.268768, 17.0 ],
					"proportion" : 0.39,
					"rounded" : 0,
					"style" : ""
				}

			}
, 			{
				"box" : 				{
					"angle" : 0.0,
					"bgcolor" : [ 0.0, 0.0, 0.0, 1.0 ],
					"id" : "obj-88",
					"maxclass" : "panel",
					"mode" : 0,
					"numinlets" : 1,
					"numoutlets" : 0,
					"patching_rect" : [ 37.609558, 338.569458, 64.0, 64.0 ],
					"presentation" : 1,
					"presentation_rect" : [ 0.0, 167.0, 437.268768, 35.433025 ],
					"proportion" : 0.39,
					"rounded" : 0,
					"style" : ""
				}

			}
, 			{
				"box" : 				{
					"angle" : 0.0,
					"bgcolor" : [ 0.137255, 0.145098, 0.160784, 0.65 ],
					"id" : "obj-110",
					"maxclass" : "panel",
					"mode" : 0,
					"numinlets" : 1,
					"numoutlets" : 0,
					"patching_rect" : [ 37.609558, 267.0, 64.0, 64.0 ],
					"presentation" : 1,
					"presentation_rect" : [ 0.0, 37.0, 437.268768, 130.584457 ],
					"proportion" : 0.39,
					"rounded" : 0,
					"style" : ""
				}

			}
, 			{
				"box" : 				{
					"angle" : 0.0,
					"bgcolor" : [ 0.367404, 0.389405, 0.430238, 1.0 ],
					"id" : "obj-114",
					"maxclass" : "panel",
					"mode" : 0,
					"numinlets" : 1,
					"numoutlets" : 0,
					"patching_rect" : [ 37.609558, 194.498413, 64.0, 64.0 ],
					"presentation" : 1,
					"presentation_rect" : [ 0.0, 19.0, 437.268768, 183.433029 ],
					"proportion" : 0.39,
					"style" : ""
				}

			}
 ],
		"lines" : [ 			{
				"patchline" : 				{
					"destination" : [ "obj-102", 0 ],
					"source" : [ "obj-1", 0 ]
				}

			}
, 			{
				"patchline" : 				{
					"destination" : [ "obj-26", 0 ],
					"midpoints" : [ 860.5, 535.5, 332.5, 535.5 ],
					"source" : [ "obj-1", 1 ]
				}

			}
, 			{
				"patchline" : 				{
					"destination" : [ "obj-131", 0 ],
					"source" : [ "obj-10", 0 ]
				}

			}
, 			{
				"patchline" : 				{
					"destination" : [ "obj-85", 0 ],
					"source" : [ "obj-100", 0 ]
				}

			}
, 			{
				"patchline" : 				{
					"destination" : [ "obj-41", 0 ],
					"source" : [ "obj-101", 0 ]
				}

			}
, 			{
				"patchline" : 				{
					"destination" : [ "obj-104", 0 ],
					"source" : [ "obj-102", 0 ]
				}

			}
, 			{
				"patchline" : 				{
					"destination" : [ "obj-85", 0 ],
					"source" : [ "obj-103", 1 ]
				}

			}
, 			{
				"patchline" : 				{
					"destination" : [ "obj-26", 0 ],
					"midpoints" : [ 711.5, 535.5, 332.5, 535.5 ],
					"source" : [ "obj-104", 0 ]
				}

			}
, 			{
				"patchline" : 				{
					"destination" : [ "obj-79", 0 ],
					"source" : [ "obj-105", 1 ]
				}

			}
, 			{
				"patchline" : 				{
					"destination" : [ "obj-83", 0 ],
					"source" : [ "obj-105", 0 ]
				}

			}
, 			{
				"patchline" : 				{
					"destination" : [ "obj-105", 0 ],
					"source" : [ "obj-106", 0 ]
				}

			}
, 			{
				"patchline" : 				{
					"destination" : [ "obj-109", 0 ],
					"source" : [ "obj-106", 1 ]
				}

			}
, 			{
				"patchline" : 				{
					"destination" : [ "obj-106", 0 ],
					"source" : [ "obj-107", 0 ]
				}

			}
, 			{
				"patchline" : 				{
					"destination" : [ "obj-106", 1 ],
					"source" : [ "obj-109", 0 ]
				}

			}
, 			{
				"patchline" : 				{
					"destination" : [ "obj-28", 0 ],
					"source" : [ "obj-11", 0 ]
				}

			}
, 			{
				"patchline" : 				{
					"destination" : [ "obj-10", 0 ],
					"midpoints" : [ 1587.5, 727.0, 359.0, 727.0 ],
					"source" : [ "obj-111", 0 ]
				}

			}
, 			{
				"patchline" : 				{
					"destination" : [ "obj-113", 0 ],
					"source" : [ "obj-111", 1 ]
				}

			}
, 			{
				"patchline" : 				{
					"destination" : [ "obj-111", 0 ],
					"source" : [ "obj-112", 0 ]
				}

			}
, 			{
				"patchline" : 				{
					"destination" : [ "obj-111", 1 ],
					"source" : [ "obj-113", 0 ]
				}

			}
, 			{
				"patchline" : 				{
					"destination" : [ "obj-24", 0 ],
					"source" : [ "obj-115", 0 ]
				}

			}
, 			{
				"patchline" : 				{
					"destination" : [ "obj-77", 0 ],
					"source" : [ "obj-117", 0 ]
				}

			}
, 			{
				"patchline" : 				{
					"destination" : [ "obj-66", 1 ],
					"source" : [ "obj-129", 0 ]
				}

			}
, 			{
				"patchline" : 				{
					"destination" : [ "obj-2", 0 ],
					"source" : [ "obj-131", 0 ]
				}

			}
, 			{
				"patchline" : 				{
					"destination" : [ "obj-22", 0 ],
					"source" : [ "obj-15", 0 ]
				}

			}
, 			{
				"patchline" : 				{
					"destination" : [ "obj-22", 0 ],
					"source" : [ "obj-16", 1 ]
				}

			}
, 			{
				"patchline" : 				{
					"destination" : [ "obj-21", 0 ],
					"source" : [ "obj-18", 1 ]
				}

			}
, 			{
				"patchline" : 				{
					"destination" : [ "obj-8", 0 ],
					"source" : [ "obj-18", 0 ]
				}

			}
, 			{
				"patchline" : 				{
					"destination" : [ "obj-3", 1 ],
					"source" : [ "obj-19", 0 ]
				}

			}
, 			{
				"patchline" : 				{
					"destination" : [ "obj-129", 2 ],
					"source" : [ "obj-2", 0 ]
				}

			}
, 			{
				"patchline" : 				{
					"destination" : [ "obj-117", 0 ],
					"source" : [ "obj-20", 0 ]
				}

			}
, 			{
				"patchline" : 				{
					"destination" : [ "obj-18", 1 ],
					"source" : [ "obj-21", 0 ]
				}

			}
, 			{
				"patchline" : 				{
					"destination" : [ "obj-73", 1 ],
					"source" : [ "obj-22", 0 ]
				}

			}
, 			{
				"patchline" : 				{
					"destination" : [ "obj-27", 0 ],
					"source" : [ "obj-24", 0 ]
				}

			}
, 			{
				"patchline" : 				{
					"destination" : [ "obj-72", 0 ],
					"source" : [ "obj-26", 0 ]
				}

			}
, 			{
				"patchline" : 				{
					"destination" : [ "obj-109", 0 ],
					"midpoints" : [ 1698.5, 113.5, 1567.5, 113.5 ],
					"order" : 1,
					"source" : [ "obj-27", 1 ]
				}

			}
, 			{
				"patchline" : 				{
					"destination" : [ "obj-113", 0 ],
					"midpoints" : [ 1698.5, 113.5, 1698.0, 113.5 ],
					"order" : 0,
					"source" : [ "obj-27", 1 ]
				}

			}
, 			{
				"patchline" : 				{
					"destination" : [ "obj-19", 0 ],
					"midpoints" : [ 1698.5, 113.5, 874.0, 113.5 ],
					"order" : 4,
					"source" : [ "obj-27", 1 ]
				}

			}
, 			{
				"patchline" : 				{
					"destination" : [ "obj-21", 0 ],
					"midpoints" : [ 1698.5, 115.0, 1026.0, 115.0 ],
					"order" : 3,
					"source" : [ "obj-27", 1 ]
				}

			}
, 			{
				"patchline" : 				{
					"destination" : [ "obj-30", 0 ],
					"midpoints" : [ 1698.5, 113.5, 733.0, 113.5 ],
					"order" : 5,
					"source" : [ "obj-27", 1 ]
				}

			}
, 			{
				"patchline" : 				{
					"destination" : [ "obj-67", 0 ],
					"midpoints" : [ 1698.5, 458.0, 270.0, 458.0 ],
					"order" : 6,
					"source" : [ "obj-27", 1 ]
				}

			}
, 			{
				"patchline" : 				{
					"destination" : [ "obj-94", 0 ],
					"midpoints" : [ 1698.5, 115.0, 1164.0, 115.0 ],
					"order" : 2,
					"source" : [ "obj-27", 1 ]
				}

			}
, 			{
				"patchline" : 				{
					"destination" : [ "obj-117", 0 ],
					"midpoints" : [ 657.5, 163.5, 306.5, 163.5 ],
					"source" : [ "obj-28", 1 ]
				}

			}
, 			{
				"patchline" : 				{
					"destination" : [ "obj-30", 0 ],
					"source" : [ "obj-28", 2 ]
				}

			}
, 			{
				"patchline" : 				{
					"destination" : [ "obj-9", 0 ],
					"source" : [ "obj-28", 0 ]
				}

			}
, 			{
				"patchline" : 				{
					"destination" : [ "obj-15", 0 ],
					"source" : [ "obj-3", 0 ]
				}

			}
, 			{
				"patchline" : 				{
					"destination" : [ "obj-19", 0 ],
					"source" : [ "obj-3", 1 ]
				}

			}
, 			{
				"patchline" : 				{
					"destination" : [ "obj-28", 1 ],
					"source" : [ "obj-30", 0 ]
				}

			}
, 			{
				"patchline" : 				{
					"destination" : [ "obj-18", 0 ],
					"source" : [ "obj-31", 0 ]
				}

			}
, 			{
				"patchline" : 				{
					"destination" : [ "obj-1", 0 ],
					"source" : [ "obj-38", 0 ]
				}

			}
, 			{
				"patchline" : 				{
					"destination" : [ "obj-58", 0 ],
					"source" : [ "obj-39", 0 ]
				}

			}
, 			{
				"patchline" : 				{
					"destination" : [ "obj-3", 0 ],
					"source" : [ "obj-40", 0 ]
				}

			}
, 			{
				"patchline" : 				{
					"destination" : [ "obj-101", 0 ],
					"order" : 1,
					"source" : [ "obj-41", 0 ]
				}

			}
, 			{
				"patchline" : 				{
					"destination" : [ "obj-86", 0 ],
					"order" : 0,
					"source" : [ "obj-41", 0 ]
				}

			}
, 			{
				"patchline" : 				{
					"destination" : [ "obj-46", 0 ],
					"source" : [ "obj-45", 0 ]
				}

			}
, 			{
				"patchline" : 				{
					"destination" : [ "obj-56", 1 ],
					"midpoints" : [ 371.5, 470.0, 407.0, 470.0, 407.0, 351.0, 385.5, 351.0 ],
					"order" : 0,
					"source" : [ "obj-46", 0 ]
				}

			}
, 			{
				"patchline" : 				{
					"destination" : [ "obj-97", 0 ],
					"order" : 1,
					"source" : [ "obj-46", 0 ]
				}

			}
, 			{
				"patchline" : 				{
					"destination" : [ "obj-117", 0 ],
					"source" : [ "obj-5", 0 ]
				}

			}
, 			{
				"patchline" : 				{
					"destination" : [ "obj-97", 0 ],
					"midpoints" : [ 442.25, 479.5, 371.5, 479.5 ],
					"source" : [ "obj-55", 0 ]
				}

			}
, 			{
				"patchline" : 				{
					"destination" : [ "obj-45", 0 ],
					"source" : [ "obj-56", 0 ]
				}

			}
, 			{
				"patchline" : 				{
					"destination" : [ "obj-75", 0 ],
					"source" : [ "obj-57", 0 ]
				}

			}
, 			{
				"patchline" : 				{
					"destination" : [ "obj-55", 0 ],
					"midpoints" : [ 306.5, 361.0, 442.25, 361.0 ],
					"source" : [ "obj-58", 1 ]
				}

			}
, 			{
				"patchline" : 				{
					"destination" : [ "obj-56", 0 ],
					"midpoints" : [ 268.5, 365.0, 371.5, 365.0 ],
					"source" : [ "obj-58", 0 ]
				}

			}
, 			{
				"patchline" : 				{
					"destination" : [ "obj-7", 0 ],
					"source" : [ "obj-59", 1 ]
				}

			}
, 			{
				"patchline" : 				{
					"destination" : [ "obj-117", 0 ],
					"source" : [ "obj-62", 0 ]
				}

			}
, 			{
				"patchline" : 				{
					"destination" : [ "obj-75", 0 ],
					"source" : [ "obj-65", 0 ]
				}

			}
, 			{
				"patchline" : 				{
					"destination" : [ "obj-68", 0 ],
					"source" : [ "obj-66", 0 ]
				}

			}
, 			{
				"patchline" : 				{
					"destination" : [ "obj-66", 0 ],
					"source" : [ "obj-67", 0 ]
				}

			}
, 			{
				"patchline" : 				{
					"destination" : [ "obj-39", 0 ],
					"source" : [ "obj-7", 0 ]
				}

			}
, 			{
				"patchline" : 				{
					"destination" : [ "obj-10", 0 ],
					"source" : [ "obj-71", 1 ]
				}

			}
, 			{
				"patchline" : 				{
					"destination" : [ "obj-129", 1 ],
					"source" : [ "obj-72", 0 ]
				}

			}
, 			{
				"patchline" : 				{
					"destination" : [ "obj-129", 0 ],
					"order" : 1,
					"source" : [ "obj-73", 0 ]
				}

			}
, 			{
				"patchline" : 				{
					"destination" : [ "obj-58", 1 ],
					"order" : 0,
					"source" : [ "obj-73", 0 ]
				}

			}
, 			{
				"patchline" : 				{
					"destination" : [ "obj-56", 1 ],
					"midpoints" : [ 386.5, 351.0, 385.5, 351.0 ],
					"source" : [ "obj-75", 0 ]
				}

			}
, 			{
				"patchline" : 				{
					"destination" : [ "obj-67", 0 ],
					"source" : [ "obj-77", 1 ]
				}

			}
, 			{
				"patchline" : 				{
					"destination" : [ "obj-73", 0 ],
					"source" : [ "obj-77", 0 ]
				}

			}
, 			{
				"patchline" : 				{
					"destination" : [ "obj-75", 0 ],
					"source" : [ "obj-77", 2 ]
				}

			}
, 			{
				"patchline" : 				{
					"destination" : [ "obj-7", 0 ],
					"midpoints" : [ 1510.0, 245.0, 268.5, 245.0 ],
					"source" : [ "obj-79", 0 ]
				}

			}
, 			{
				"patchline" : 				{
					"destination" : [ "obj-41", 0 ],
					"midpoints" : [ 915.5, 298.0, 801.5, 298.0, 801.5, 156.0, 536.5, 156.0 ],
					"source" : [ "obj-8", 0 ]
				}

			}
, 			{
				"patchline" : 				{
					"destination" : [ "obj-85", 0 ],
					"source" : [ "obj-80", 0 ]
				}

			}
, 			{
				"patchline" : 				{
					"destination" : [ "obj-7", 0 ],
					"midpoints" : [ 1457.0, 245.0, 268.5, 245.0 ],
					"source" : [ "obj-83", 0 ]
				}

			}
, 			{
				"patchline" : 				{
					"destination" : [ "obj-45", 1 ],
					"midpoints" : [ 624.5, 396.0, 385.5, 396.0 ],
					"order" : 1,
					"source" : [ "obj-85", 0 ]
				}

			}
, 			{
				"patchline" : 				{
					"destination" : [ "obj-80", 0 ],
					"order" : 0,
					"source" : [ "obj-85", 0 ]
				}

			}
, 			{
				"patchline" : 				{
					"destination" : [ "obj-38", 0 ],
					"midpoints" : [ 563.5, 242.0, 711.5, 242.0 ],
					"source" : [ "obj-86", 2 ]
				}

			}
, 			{
				"patchline" : 				{
					"destination" : [ "obj-46", 1 ],
					"midpoints" : [ 536.5, 429.0, 385.5, 429.0 ],
					"order" : 1,
					"source" : [ "obj-86", 0 ]
				}

			}
, 			{
				"patchline" : 				{
					"destination" : [ "obj-55", 1 ],
					"order" : 0,
					"source" : [ "obj-86", 0 ]
				}

			}
, 			{
				"patchline" : 				{
					"destination" : [ "obj-90", 0 ],
					"midpoints" : [ 577.0, 234.0, 1027.25, 234.0, 1027.25, 164.0, 1107.5, 164.0 ],
					"source" : [ "obj-86", 3 ]
				}

			}
, 			{
				"patchline" : 				{
					"destination" : [ "obj-99", 0 ],
					"midpoints" : [ 550.0, 250.0, 624.5, 250.0 ],
					"source" : [ "obj-86", 1 ]
				}

			}
, 			{
				"patchline" : 				{
					"destination" : [ "obj-20", 0 ],
					"source" : [ "obj-9", 1 ]
				}

			}
, 			{
				"patchline" : 				{
					"destination" : [ "obj-5", 0 ],
					"source" : [ "obj-9", 0 ]
				}

			}
, 			{
				"patchline" : 				{
					"destination" : [ "obj-93", 4 ],
					"source" : [ "obj-90", 0 ]
				}

			}
, 			{
				"patchline" : 				{
					"destination" : [ "obj-93", 0 ],
					"source" : [ "obj-91", 0 ]
				}

			}
, 			{
				"patchline" : 				{
					"destination" : [ "obj-94", 0 ],
					"source" : [ "obj-91", 1 ]
				}

			}
, 			{
				"patchline" : 				{
					"destination" : [ "obj-91", 0 ],
					"source" : [ "obj-92", 0 ]
				}

			}
, 			{
				"patchline" : 				{
					"destination" : [ "obj-85", 0 ],
					"midpoints" : [ 1053.5, 311.5, 624.5, 311.5 ],
					"source" : [ "obj-93", 0 ]
				}

			}
, 			{
				"patchline" : 				{
					"destination" : [ "obj-91", 1 ],
					"source" : [ "obj-94", 0 ]
				}

			}
, 			{
				"patchline" : 				{
					"destination" : [ "obj-41", 0 ],
					"source" : [ "obj-96", 1 ]
				}

			}
, 			{
				"patchline" : 				{
					"destination" : [ "obj-1", 0 ],
					"midpoints" : [ 371.5, 515.0, 638.5, 515.0, 638.5, 352.0, 711.5, 352.0 ],
					"source" : [ "obj-97", 0 ]
				}

			}
, 			{
				"patchline" : 				{
					"destination" : [ "obj-1", 0 ],
					"source" : [ "obj-98", 1 ]
				}

			}
, 			{
				"patchline" : 				{
					"destination" : [ "obj-100", 0 ],
					"source" : [ "obj-99", 0 ]
				}

			}
 ]
	}

}
